<?xml version="1.0" standalone="no"?>
<!DOCTYPE svg PUBLIC "-//W3C//DTD SVG 20010904//EN"
 "http://www.w3.org/TR/2001/REC-SVG-20010904/DTD/svg10.dtd">
<svg version="1.0" xmlns="http://www.w3.org/2000/svg"
 width="928.000000pt" height="1280.000000pt" viewBox="0 0 928.000000 1280.000000"
 preserveAspectRatio="xMidYMid meet">
<g transform="translate(0.000000,1280.000000) scale(0.100000,-0.100000)"
fill="#000000" stroke="none">
<path d="M4737 11790 c-319 -40 -633 -176 -932 -404 -327 -248 -607 -604 -706
-896 -36 -107 -49 -368 -57 -1120 -4 -371 -3 -1325 1 -2119 4 -794 4 -1447 0
-1451 -4 -4 -70 -29 -145 -56 l-138 -48 0 -204 c0 -140 4 -210 12 -225 7 -12
15 -44 18 -70 5 -49 5 -49 63 -73 75 -30 153 -57 247 -84 41 -12 86 -26 100
-30 36 -12 166 -41 260 -59 145 -27 303 -46 492 -57 58 -3 101 -11 107 -18 6
-7 14 -53 17 -102 4 -49 12 -96 20 -104 13 -15 18 -112 44 -840 6 -157 15
-402 20 -545 21 -567 65 -1766 90 -2465 23 -658 30 -789 38 -794 9 -5 394 13
400 19 4 4 0 360 -28 2270 -32 2186 -33 2314 -21 2328 7 9 14 80 18 190 3 97
10 174 15 171 4 -3 8 -21 8 -39 0 -33 1 -34 33 -29 122 19 158 26 285 55 254
57 614 182 845 294 33 17 37 23 37 56 0 63 17 53 23 -14 3 -34 11 -188 17
-342 8 -202 15 -287 25 -306 15 -27 17 -87 65 -1584 103 -3246 96 -3049 111
-3074 11 -17 20 -21 39 -17 14 3 106 13 205 21 98 9 181 18 184 21 3 2 0 1056
-7 2342 -10 2038 -9 2340 3 2359 12 18 15 69 15 262 l0 241 23 5 c12 2 123 23
247 46 124 22 229 45 235 50 5 5 8 75 6 167 l-3 158 129 23 c70 12 132 26 136
30 5 5 7 21 5 37 -3 27 -8 31 -98 56 -52 15 -133 31 -179 35 l-84 8 -34 49
c-42 61 -38 76 32 141 52 48 54 53 61 115 15 143 3 684 -36 1515 -85 1825
-158 2706 -240 2914 -53 135 -212 359 -377 531 -344 359 -735 572 -1183 645
-116 19 -370 27 -463 15z m-677 -6842 c0 -16 -3 -19 -11 -11 -6 6 -8 16 -5 22
11 17 16 13 16 -11z"/>
</g>
</svg>
